<svg xmlns="http://www.w3.org/2000/svg" xmlns:xlink="http://www.w3.org/1999/xlink" width="1500" zoomAndPan="magnify" viewBox="0 0 1125 225" height="300" preserveAspectRatio="xMidYMid meet" version="1.0"><defs><g/><clipPath id="0140578558"><rect x="0" width="495" y="0" height="170"/></clipPath></defs><path fill="#ffffff" d="M 174.117188 139.277344 C 174.117188 144.050781 174.097656 148.726562 174.136719 153.402344 C 174.144531 154.289062 173.890625 154.832031 173.101562 155.300781 C 162.0625 161.847656 151.042969 168.425781 140.015625 174.992188 C 127.96875 182.167969 115.914062 189.324219 103.882812 196.519531 C 103.101562 196.984375 102.539062 197.015625 101.742188 196.539062 C 89.007812 188.914062 76.253906 181.324219 63.503906 173.726562 C 61.609375 172.597656 59.722656 171.449219 57.820312 170.339844 C 57.195312 169.976562 57.058594 169.695312 57.597656 169.074219 C 66.839844 158.441406 76.058594 147.792969 85.265625 137.128906 C 85.824219 136.484375 86.261719 136.378906 87.011719 136.832031 C 91.992188 139.847656 97.011719 142.8125 101.996094 145.828125 C 102.585938 146.183594 103.007812 146.203125 103.597656 145.847656 C 112.367188 140.570312 121.144531 135.304688 129.9375 130.0625 C 130.625 129.652344 130.734375 129.140625 130.734375 128.433594 C 130.71875 117.800781 130.726562 107.167969 130.710938 96.53125 C 130.710938 95.808594 130.847656 95.203125 131.316406 94.621094 C 136.375 88.300781 141.425781 81.972656 146.449219 75.621094 C 146.945312 74.996094 147.296875 74.917969 147.976562 75.335938 C 150.644531 76.96875 153.335938 78.558594 156.042969 80.125 C 156.664062 80.484375 156.894531 80.917969 156.894531 81.628906 C 156.882812 102.335938 156.886719 123.046875 156.90625 143.753906 C 156.910156 144.441406 156.652344 144.839844 156.082031 145.179688 C 148.925781 149.433594 141.777344 153.703125 134.628906 157.96875 C 128.355469 161.710938 122.078125 165.453125 115.804688 169.195312 C 111.765625 171.605469 107.714844 174 103.695312 176.449219 C 103.023438 176.855469 102.546875 176.804688 101.90625 176.421875 C 93.785156 171.535156 85.648438 166.675781 77.515625 161.808594 C 76.15625 160.992188 76.175781 161 75.140625 162.214844 C 73.671875 163.941406 72.183594 165.644531 70.660156 167.410156 C 71.738281 168.386719 72.96875 168.960938 74.117188 169.648438 C 83.246094 175.09375 92.394531 180.507812 101.511719 185.972656 C 102.4375 186.527344 103.09375 186.582031 104.074219 185.992188 C 114.652344 179.632812 125.265625 173.335938 135.875 167.027344 C 145.320312 161.40625 154.769531 155.789062 164.230469 150.191406 C 164.996094 149.742188 165.316406 149.238281 165.3125 148.316406 C 165.285156 124.578125 165.289062 100.84375 165.316406 77.105469 C 165.316406 76.117188 164.996094 75.558594 164.148438 75.070312 C 160.550781 73.003906 157.003906 70.855469 153.417969 68.773438 C 152.71875 68.363281 152.542969 68.035156 153.121094 67.355469 C 154.691406 65.496094 156.21875 63.597656 157.742188 61.695312 C 158.0625 61.300781 158.332031 61.28125 158.746094 61.527344 C 163.640625 64.4375 168.535156 67.347656 173.449219 70.222656 C 174.144531 70.628906 174.117188 71.1875 174.113281 71.820312 C 174.113281 83.179688 174.113281 94.535156 174.113281 105.894531 C 174.113281 116.988281 174.113281 128.085938 174.117188 139.277344 M 147.933594 97.890625 C 147.933594 94.761719 147.933594 91.632812 147.933594 88.273438 C 147.59375 88.554688 147.476562 88.621094 147.402344 88.71875 C 144.9375 91.847656 142.476562 94.980469 140.007812 98.105469 C 139.640625 98.574219 139.539062 99.085938 139.542969 99.667969 C 139.558594 104.210938 139.558594 108.757812 139.558594 113.300781 C 139.5625 120.113281 139.542969 126.929688 139.570312 133.746094 C 139.574219 134.511719 139.332031 134.949219 138.664062 135.300781 C 137.585938 135.863281 136.558594 136.519531 135.511719 137.148438 C 129.074219 141 122.636719 144.855469 116.195312 148.710938 C 111.988281 151.226562 107.777344 153.742188 103.574219 156.269531 C 103.082031 156.566406 102.667969 156.667969 102.125 156.324219 C 100.484375 155.289062 98.808594 154.308594 97.144531 153.304688 C 94.328125 151.605469 91.511719 149.902344 88.6875 148.214844 C 88.285156 147.976562 87.847656 147.566406 87.375 148.113281 C 85.855469 149.886719 84.332031 151.660156 82.824219 153.445312 C 82.464844 153.871094 82.535156 154.308594 82.988281 154.640625 C 83.28125 154.851562 83.59375 155.039062 83.90625 155.222656 C 89.785156 158.730469 95.675781 162.214844 101.53125 165.765625 C 102.472656 166.335938 103.148438 166.34375 104.101562 165.769531 C 118.328125 157.234375 132.574219 148.734375 146.828125 140.25 C 147.636719 139.769531 147.953125 139.234375 147.949219 138.289062 C 147.921875 124.886719 147.933594 111.488281 147.933594 97.890625 Z M 147.933594 97.890625 " fill-opacity="1" fill-rule="nonzero"/><path fill="#ffffff" d="M 51.785156 78.835938 C 62.433594 72.519531 73.027344 66.246094 83.613281 59.964844 C 89.558594 56.4375 95.507812 52.917969 101.421875 49.34375 C 102.417969 48.742188 103.148438 48.71875 104.179688 49.335938 C 114.03125 55.246094 123.921875 61.085938 133.800781 66.953125 C 134.792969 67.542969 134.78125 67.570312 134.003906 68.464844 C 128.636719 74.660156 123.257812 80.839844 117.921875 87.058594 C 117.304688 87.773438 116.863281 87.425781 116.324219 87.105469 C 112.140625 84.609375 107.949219 82.128906 103.785156 79.601562 C 103.074219 79.171875 102.550781 79.148438 101.824219 79.585938 C 93.1875 84.765625 84.535156 89.917969 75.871094 95.050781 C 75.117188 95.496094 74.859375 96.019531 74.863281 96.875 C 74.886719 107.34375 74.894531 117.816406 74.859375 128.285156 C 74.855469 129.28125 75.179688 129.859375 76.042969 130.3125 C 76.933594 130.78125 77.859375 131.226562 78.679688 132.003906 C 77.792969 133.339844 76.652344 134.433594 75.660156 135.644531 C 74.953125 136.511719 74.171875 137.316406 73.472656 138.1875 C 73.09375 138.660156 72.78125 138.765625 72.238281 138.429688 C 70.390625 137.28125 68.527344 136.164062 66.648438 135.074219 C 66.078125 134.738281 65.941406 134.292969 65.945312 133.683594 C 65.960938 130.457031 65.957031 127.230469 65.957031 124.003906 C 65.953125 113.304688 65.957031 102.601562 65.921875 91.902344 C 65.917969 91.003906 66.1875 90.480469 66.976562 90.015625 C 76.019531 84.675781 85.039062 79.300781 94.0625 73.929688 C 96.691406 72.363281 99.324219 70.804688 101.941406 69.214844 C 102.546875 68.847656 103.015625 68.828125 103.652344 69.210938 C 107.285156 71.40625 110.960938 73.535156 114.59375 75.730469 C 115.3125 76.164062 115.71875 76.074219 116.242188 75.449219 C 117.570312 73.859375 118.96875 72.324219 120.339844 70.769531 C 121.167969 69.832031 121.175781 69.800781 120.066406 69.136719 C 114.527344 65.835938 108.972656 62.550781 103.445312 59.230469 C 102.867188 58.882812 102.484375 59.070312 102.015625 59.351562 C 94.238281 63.984375 86.460938 68.609375 78.679688 73.230469 C 71.972656 77.214844 65.265625 81.195312 58.546875 85.160156 C 57.941406 85.519531 57.546875 85.867188 57.550781 86.671875 C 57.574219 100.136719 57.570312 113.601562 57.570312 127.066406 C 57.570312 130.820312 57.601562 134.574219 57.542969 138.324219 C 57.527344 139.261719 57.875 139.761719 58.640625 140.199219 C 61.234375 141.691406 63.792969 143.253906 66.390625 144.746094 C 67.113281 145.160156 67.238281 145.46875 66.628906 146.140625 C 65.0625 147.871094 63.554688 149.660156 62.0625 151.457031 C 61.570312 152.050781 61.164062 152.117188 60.492188 151.707031 C 56.921875 149.53125 53.332031 147.390625 49.730469 145.269531 C 49.027344 144.859375 48.734375 144.375 48.734375 143.539062 C 48.753906 122.960938 48.753906 102.382812 48.726562 81.804688 C 48.726562 80.933594 48.953125 80.386719 49.761719 80.015625 C 50.449219 79.707031 51.070312 79.261719 51.785156 78.835938 Z M 51.785156 78.835938 " fill-opacity="1" fill-rule="nonzero"/><path fill="#ffffff" d="M 137.132812 48.757812 C 139.941406 50.421875 142.6875 52.054688 145.429688 53.6875 C 146.417969 54.277344 146.433594 54.335938 145.683594 55.210938 C 144.1875 56.964844 142.675781 58.699219 141.191406 60.460938 C 140.785156 60.941406 140.433594 61.050781 139.851562 60.703125 C 132.636719 56.414062 125.410156 52.144531 118.1875 47.871094 C 113.257812 44.957031 108.320312 42.058594 103.398438 39.128906 C 102.9375 38.855469 102.609375 38.847656 102.148438 39.121094 C 95.5625 43.050781 88.96875 46.960938 82.371094 50.871094 C 73.539062 56.105469 64.699219 61.332031 55.863281 66.5625 C 50.9375 69.480469 46.019531 72.417969 41.078125 75.3125 C 40.410156 75.703125 40.339844 76.210938 40.339844 76.871094 C 40.347656 98.734375 40.339844 120.597656 40.339844 142.460938 C 40.339844 144.535156 40.367188 146.609375 40.328125 148.683594 C 40.316406 149.371094 40.5625 149.75 41.144531 150.089844 C 45.523438 152.644531 49.882812 155.226562 54.242188 157.816406 C 54.6875 158.078125 55.203125 158.265625 55.550781 158.855469 C 54.789062 159.753906 54.011719 160.675781 53.226562 161.59375 C 52.28125 162.695312 51.316406 163.773438 50.398438 164.894531 C 49.988281 165.394531 49.609375 165.464844 49.050781 165.128906 C 43.433594 161.761719 37.8125 158.398438 32.175781 155.0625 C 31.484375 154.652344 31.53125 154.078125 31.53125 153.453125 C 31.535156 138.4375 31.535156 123.425781 31.53125 108.410156 C 31.53125 96.195312 31.539062 83.980469 31.515625 71.765625 C 31.515625 70.988281 31.722656 70.527344 32.425781 70.113281 C 47.308594 61.332031 62.175781 52.523438 77.046875 43.71875 C 85.117188 38.941406 93.207031 34.1875 101.246094 29.351562 C 102.398438 28.65625 103.234375 28.683594 104.359375 29.351562 C 115.246094 35.835938 126.164062 42.273438 137.132812 48.757812 Z M 137.132812 48.757812 " fill-opacity="1" fill-rule="nonzero"/><path fill="#ffffff" d="M 84.449219 125.558594 C 83.273438 125.132812 83.214844 124.316406 83.21875 123.25 C 83.257812 116.304688 83.246094 109.355469 83.144531 102.410156 C 83.125 100.972656 83.574219 100.191406 84.824219 99.46875 C 90.523438 96.175781 96.164062 92.78125 101.804688 89.386719 C 102.507812 88.964844 103.03125 88.90625 103.765625 89.347656 C 109.65625 92.894531 115.570312 96.40625 121.5 99.898438 C 122.164062 100.289062 122.371094 100.734375 122.371094 101.476562 C 122.34375 108.917969 122.347656 116.359375 122.367188 123.796875 C 122.371094 124.535156 122.179688 125.003906 121.515625 125.394531 C 115.617188 128.867188 109.730469 132.363281 103.863281 135.890625 C 103.082031 136.359375 102.484375 136.359375 101.710938 135.890625 C 95.988281 132.433594 90.246094 129.023438 84.449219 125.558594 Z M 84.449219 125.558594 " fill-opacity="1" fill-rule="nonzero"/><g transform="matrix(1, 0, 0, 1, 192, 27)"><g clip-path="url(#0140578558)"><g fill="#ffffff" fill-opacity="1"><g transform="translate(0.232214, 135.495304)"><g><path d="M 4.625 -83.984375 L 4.625 -101.40625 L 87.390625 -101.40625 L 87.390625 -83.984375 L 56.484375 -83.984375 L 56.484375 0 L 35.671875 0 L 35.671875 -83.984375 Z M 4.625 -83.984375 "/></g></g></g><g fill="#ffffff" fill-opacity="1"><g transform="translate(89.52583, 135.495304)"><g><path d="M 8.375 0 L 8.375 -75.140625 L 28.046875 -75.140625 L 28.046875 -62.140625 L 28.71875 -62.140625 C 30.082031 -66.722656 32.351562 -70.179688 35.53125 -72.515625 C 38.707031 -74.859375 42.472656 -76.03125 46.828125 -76.03125 C 47.910156 -76.03125 49.039062 -75.984375 50.21875 -75.890625 C 51.40625 -75.796875 52.429688 -75.660156 53.296875 -75.484375 L 53.296875 -57.515625 C 52.429688 -57.785156 51.144531 -58 49.4375 -58.15625 C 47.738281 -58.3125 46.097656 -58.390625 44.515625 -58.390625 C 41.515625 -58.390625 38.800781 -57.734375 36.375 -56.421875 C 33.945312 -55.109375 32.050781 -53.25 30.6875 -50.84375 C 29.332031 -48.4375 28.65625 -45.597656 28.65625 -42.328125 L 28.65625 0 Z M 8.375 0 "/></g></g></g><g fill="#ffffff" fill-opacity="1"><g transform="translate(142.476913, 135.495304)"><g><path d="M 42.265625 1.5 C 34.691406 1.5 28.125 -0.117188 22.5625 -3.359375 C 17 -6.609375 12.707031 -11.148438 9.6875 -16.984375 C 6.675781 -22.816406 5.171875 -29.585938 5.171875 -37.296875 C 5.171875 -45.097656 6.675781 -51.914062 9.6875 -57.75 C 12.707031 -63.582031 17 -68.117188 22.5625 -71.359375 C 28.125 -74.609375 34.691406 -76.234375 42.265625 -76.234375 C 49.796875 -76.234375 56.335938 -74.609375 61.890625 -71.359375 C 67.453125 -68.117188 71.742188 -63.582031 74.765625 -57.75 C 77.785156 -51.914062 79.296875 -45.097656 79.296875 -37.296875 C 79.296875 -29.585938 77.785156 -22.816406 74.765625 -16.984375 C 71.742188 -11.148438 67.453125 -6.609375 61.890625 -3.359375 C 56.335938 -0.117188 49.796875 1.5 42.265625 1.5 Z M 42.265625 -14.5625 C 45.804688 -14.5625 48.789062 -15.535156 51.21875 -17.484375 C 53.644531 -19.441406 55.492188 -22.132812 56.765625 -25.5625 C 58.035156 -28.988281 58.671875 -32.921875 58.671875 -37.359375 C 58.671875 -41.859375 58.035156 -45.804688 56.765625 -49.203125 C 55.492188 -52.609375 53.644531 -55.285156 51.21875 -57.234375 C 48.789062 -59.191406 45.804688 -60.171875 42.265625 -60.171875 C 38.722656 -60.171875 35.726562 -59.191406 33.28125 -57.234375 C 30.832031 -55.285156 28.984375 -52.609375 27.734375 -49.203125 C 26.484375 -45.804688 25.859375 -41.859375 25.859375 -37.359375 C 25.859375 -32.921875 26.484375 -28.988281 27.734375 -25.5625 C 28.984375 -22.132812 30.820312 -19.441406 33.25 -17.484375 C 35.675781 -15.535156 38.679688 -14.5625 42.265625 -14.5625 Z M 42.265625 -14.5625 "/></g></g></g><g fill="#ffffff" fill-opacity="1"><g transform="translate(224.148126, 135.495304)"><g><path d="M 42.265625 1.5 C 34.691406 1.5 28.125 -0.117188 22.5625 -3.359375 C 17 -6.609375 12.707031 -11.148438 9.6875 -16.984375 C 6.675781 -22.816406 5.171875 -29.585938 5.171875 -37.296875 C 5.171875 -45.097656 6.675781 -51.914062 9.6875 -57.75 C 12.707031 -63.582031 17 -68.117188 22.5625 -71.359375 C 28.125 -74.609375 34.691406 -76.234375 42.265625 -76.234375 C 49.796875 -76.234375 56.335938 -74.609375 61.890625 -71.359375 C 67.453125 -68.117188 71.742188 -63.582031 74.765625 -57.75 C 77.785156 -51.914062 79.296875 -45.097656 79.296875 -37.296875 C 79.296875 -29.585938 77.785156 -22.816406 74.765625 -16.984375 C 71.742188 -11.148438 67.453125 -6.609375 61.890625 -3.359375 C 56.335938 -0.117188 49.796875 1.5 42.265625 1.5 Z M 42.265625 -14.5625 C 45.804688 -14.5625 48.789062 -15.535156 51.21875 -17.484375 C 53.644531 -19.441406 55.492188 -22.132812 56.765625 -25.5625 C 58.035156 -28.988281 58.671875 -32.921875 58.671875 -37.359375 C 58.671875 -41.859375 58.035156 -45.804688 56.765625 -49.203125 C 55.492188 -52.609375 53.644531 -55.285156 51.21875 -57.234375 C 48.789062 -59.191406 45.804688 -60.171875 42.265625 -60.171875 C 38.722656 -60.171875 35.726562 -59.191406 33.28125 -57.234375 C 30.832031 -55.285156 28.984375 -52.609375 27.734375 -49.203125 C 26.484375 -45.804688 25.859375 -41.859375 25.859375 -37.359375 C 25.859375 -32.921875 26.484375 -28.988281 27.734375 -25.5625 C 28.984375 -22.132812 30.820312 -19.441406 33.25 -17.484375 C 35.675781 -15.535156 38.679688 -14.5625 42.265625 -14.5625 Z M 42.265625 -14.5625 "/></g></g></g><g fill="#ffffff" fill-opacity="1"><g transform="translate(305.819329, 135.495304)"><g><path d="M 50.5625 -75.140625 L 50.5625 -59.546875 L 1.296875 -59.546875 L 1.296875 -75.140625 Z M 14.640625 0 L 14.640625 -81.75 C 14.640625 -86.957031 15.671875 -91.285156 17.734375 -94.734375 C 19.796875 -98.191406 22.664062 -100.78125 26.34375 -102.5 C 30.019531 -104.226562 34.238281 -105.09375 39 -105.09375 C 42.039062 -105.09375 44.84375 -104.898438 47.40625 -104.515625 C 49.96875 -104.128906 51.816406 -103.773438 52.953125 -103.453125 L 50.09375 -88 C 49.320312 -88.1875 48.3125 -88.367188 47.0625 -88.546875 C 45.8125 -88.734375 44.550781 -88.828125 43.28125 -88.828125 C 40.25 -88.828125 38.097656 -88.117188 36.828125 -86.703125 C 35.554688 -85.296875 34.921875 -83.234375 34.921875 -80.515625 L 34.921875 0 Z M 14.640625 0 "/></g></g></g><g fill="#ffffff" fill-opacity="1"><g transform="translate(357.681515, 135.495304)"><g><path d="M 2.71875 0 L 37.640625 -101.40625 L 64.734375 -101.40625 L 100.328125 0 L 77.1875 0 L 60.984375 -49 C 59.035156 -55.351562 57.050781 -62.21875 55.03125 -69.59375 C 53.007812 -76.96875 50.863281 -85.078125 48.59375 -93.921875 L 53.359375 -93.921875 C 51.140625 -85.078125 49.078125 -76.941406 47.171875 -69.515625 C 45.265625 -62.097656 43.359375 -55.257812 41.453125 -49 L 25.59375 0 Z M 24.578125 -23.203125 L 24.578125 -39.609375 L 78.46875 -39.609375 L 78.46875 -23.203125 Z M 24.578125 -23.203125 "/></g></g></g><g fill="#ffffff" fill-opacity="1"><g transform="translate(457.932324, 135.495304)"><g><path d="M 29.609375 -101.40625 L 29.609375 0 L 8.78125 0 L 8.78125 -101.40625 Z M 29.609375 -101.40625 "/></g></g></g></g></g></svg>